<svg xmlns="http://www.w3.org/2000/svg" viewBox="0 0 360 120">
  <rect width="360" height="120" fill="none" />
  <g fill="#000000">
    <path d="M0 0h22c-7 12-7 22 0 34s7 22 0 34-7 22 0 34 7 18 0 18H0V0Z" />
    <path d="M72 0h18v120H72z" />
    <path d="M96 0h26l-26 30 26 30-26 30 26 30H96L70 90l26-30-26-30L96 0Z" />
    <path d="M104 17l-10 13 10 13 10-13-10-13Zm0 60-10 13 10 13 10-13-10-13Z" fill="#ffffff" />
    <path d="M144 0h22c-7 12-7 22 0 34s7 22 0 34-7 22 0 34 7 18 0 18h-22V0Z" />
    <path d="M216 0h18v120h-18z" />
    <path d="M240 0h26l-26 30 26 30-26 30 26 30h-26l-26-30 26-30-26-30 26-30Z" />
    <path d="M248 17l-10 13 10 13 10-13-10-13Zm0 60-10 13 10 13 10-13-10-13Z" fill="#ffffff" />
    <path d="M288 0h22c-7 12-7 22 0 34s7 22 0 34-7 22 0 34 7 18 0 18h-22V0Z" />
  </g>
</svg>
